# xmcd
#
# Track frame offsets:
#	150
#	20688
#	39328
#	59374
#	86286
#	101054
#	126636
#	143588
#	159938
#	185125
#	204870
#	222343
#
# Disc length: 3189 seconds
#
# Revision: 1
# Processed by: cddbd v1.5.2PL0 Copyright (c) Steve Scherf et al.
# Submitted via: audiograbber 1.83.01
#
DISCID=a60c730c
DTITLE=Mad Max - Thunder, Storm And Passion
DYEAR=2015
DGENRE=Heavy Metal
TTITLE0=Fly fly away
TTITLE1=Losing you
TTITLE2=Rollin' Thunder
TTITLE3=Thoughts of a dying man
TTITLE4=Never say never
TTITLE5=Lonely is the hunter
TTITLE6=Stormchild
TTITLE7=Heroes die lonely
TTITLE8=Burning the stage
TTITLE9=Wait for the night
TTITLE10=Night of passion
TTITLE11=Hearts on fire
EXTD=
EXTT0=
EXTT1=
EXTT2=
EXTT3=
EXTT4=
EXTT5=
EXTT6=
EXTT7=
EXTT8=
EXTT9=
EXTT10=
EXTT11=
PLAYORDER=
